{
  "accessors": [
    {
      "bufferView": 2,
      "componentType": 5126,
      "count": 9058,
      "max": [
        1.4337078332901,
        1.7127406597137451,
        0.7360897064208984
      ],
      "min": [
        -1.5862183570861816,
        -0.2835944890975952,
        -0.6890149116516113
      ],
      "type": "VEC3"
    },
    {
      "bufferView": 2,
      "byteOffset": 108696,
      "componentType": 5126,
      "count": 9058,
      "max": [
        1.0,
        1.0,
        1.0
      ],
      "min": [
        -1.0,
        -1.0,
        -1.0
      ],
      "type": "VEC3"
    },
    {
      "bufferView": 1,
      "componentType": 5126,
      "count": 9058,
      "max": [
        1.0,
        0.9999999403953552
      ],
      "min": [
        0.0,
        0.0
      ],
      "type": "VEC2"
    },
    {
      "bufferView": 0,
      "componentType": 5125,
      "count": 14310,
      "type": "SCALAR"
    },
    {
      "bufferView": 2,
      "byteOffset": 217392,
      "componentType": 5126,
      "count": 1472,
      "max": [
        0.34841999411582947,
        1.9131176471710205,
        0.7059601545333862
      ],
      "min": [
        -0.39393436908721924,
        -1.802804708480835,
        -0.7059601545333862
      ],
      "type": "VEC3"
    },
    {
      "bufferView": 2,
      "byteOffset": 235056,
      "componentType": 5126,
      "count": 1472,
      "max": [
        0.977288544178009,
        1.0,
        1.0
      ],
      "min": [
        -0.9772884249687195,
        -1.0,
        -1.0
      ],
      "type": "VEC3"
    },
    {
      "bufferView": 1,
      "byteOffset": 72464,
      "componentType": 5126,
      "count": 1472,
      "max": [
        0.9912872910499573,
        0.9790638089179993
      ],
      "min": [
        0.008712753653526306,
        0.008712753653526306
      ],
      "type": "VEC2"
    },
    {
      "bufferView": 0,
      "byteOffset": 57240,
      "componentType": 5125,
      "count": 2298,
      "type": "SCALAR"
    },
    {
      "bufferView": 2,
      "byteOffset": 252720,
      "componentType": 5126,
      "count": 198,
      "max": [
        -0.3155348300933838,
        -1.0999542474746704,
        0.011565468274056911
      ],
      "min": [
        -0.5030531287193298,
        -1.1581175327301025,
        -0.011559206061065197
      ],
      "type": "VEC3"
    },
    {
      "bufferView": 2,
      "byteOffset": 255096,
      "componentType": 5126,
      "count": 198,
      "max": [
        0.9998525381088257,
        0.8929610848426819,
        0.9983914494514465
      ],
      "min": [
        -0.9999812245368958,
        -0.8929609656333923,
        -0.9983915090560913
      ],
      "type": "VEC3"
    },
    {
      "bufferView": 1,
      "byteOffset": 84240,
      "componentType": 5126,
      "count": 198,
      "max": [
        0.9723954200744629,
        0.9729645252227783
      ],
      "min": [
        0.6669321656227112,
        0.2201482057571411
      ],
      "type": "VEC2"
    },
    {
      "bufferView": 0,
      "byteOffset": 66432,
      "componentType": 5125,
      "count": 300,
      "type": "SCALAR"
    },
    {
      "bufferView": 3,
      "componentType": 5126,
      "count": 15,
      "max": [
        10.416666984558105
      ],
      "min": [
        0.0416666679084301
      ],
      "type": "SCALAR"
    },
    {
      "bufferView": 4,
      "componentType": 5126,
      "count": 15,
      "max": [
        -0.07750093936920166,
        1.7489070892333984,
        0.7231449484825134
      ],
      "min": [
        -0.07750093936920166,
        0.6779729723930359,
        0.634655237197876
      ],
      "type": "VEC3"
    },
    {
      "bufferView": 3,
      "byteOffset": 60,
      "componentType": 5126,
      "count": 15,
      "max": [
        10.416666984558105
      ],
      "min": [
        0.0416666679084301
      ],
      "type": "SCALAR"
    },
    {
      "bufferView": 5,
      "componentType": 5126,
      "count": 15,
      "max": [
        -0.6011033058166504,
        0.027333568781614304,
        0.12066929042339325,
        0.7883689999580383
      ],
      "min": [
        -0.815712571144104,
        -0.11467990279197693,
        -0.06322679668664932,
        0.5753357410430908
      ],
      "type": "VEC4"
    },
    {
      "bufferView": 3,
      "byteOffset": 120,
      "componentType": 5126,
      "count": 13,
      "max": [
        0.7916666865348816
      ],
      "min": [
        0.2916666567325592
      ],
      "type": "SCALAR"
    },
    {
      "bufferView": 4,
      "byteOffset": 180,
      "componentType": 5126,
      "count": 13,
      "max": [
        -0.07750093936920166,
        1.7489070892333984,
        0.7231449484825134
      ],
      "min": [
        -0.07750093936920166,
        0.6779729723930359,
        0.634655237197876
      ],
      "type": "VEC3"
    },
    {
      "bufferView": 3,
      "byteOffset": 172,
      "componentType": 5126,
      "count": 13,
      "max": [
        0.7916666865348816
      ],
      "min": [
        0.2916666567325592
      ],
      "type": "SCALAR"
    },
    {
      "bufferView": 5,
      "byteOffset": 240,
      "componentType": 5126,
      "count": 13,
      "max": [
        -0.6011033654212952,
        0.027333568781614304,
        0.12066933512687683,
        0.7883689999580383
      ],
      "min": [
        -0.815712571144104,
        -0.11467993259429932,
        -0.06322679668664932,
        0.5753358006477356
      ],
      "type": "VEC4"
    }
  ],
  "animations": [
    {
      "channels": [
        {
          "sampler": 0,
          "target": {
            "node": 3,
            "path": "translation"
          }
        },
        {
          "sampler": 1,
          "target": {
            "node": 3,
            "path": "rotation"
          }
        }
      ],
      "name": "Action",
      "samplers": [
        {
          "input": 12,
          "interpolation": "LINEAR",
          "output": 13
        },
        {
          "input": 14,
          "interpolation": "LINEAR",
          "output": 15
        }
      ]
    },
    {
      "channels": [
        {
          "sampler": 0,
          "target": {
            "node": 3,
            "path": "translation"
          }
        },
        {
          "sampler": 1,
          "target": {
            "node": 3,
            "path": "rotation"
          }
        }
      ],
      "name": "BaseAction",
      "samplers": [
        {
          "input": 16,
          "interpolation": "LINEAR",
          "output": 17
        },
        {
          "input": 18,
          "interpolation": "LINEAR",
          "output": 19
        }
      ]
    }
  ],
  "asset": {
    "extras": {
      "author": "mderksen (https://sketchfab.com/mderksen)",
      "license": "CC-BY-4.0 (http://creativecommons.org/licenses/by/4.0/)",
      "source": "https://sketchfab.com/3d-models/low-poly-pirate-cannon-4fe2b072189e4e48b3154bec73d0879c",
      "title": "Low-Poly Pirate Cannon"
    },
    "generator": "Sketchfab-12.68.0",
    "version": "2.0"
  },
  "bufferViews": [
    {
      "buffer": 0,
      "byteLength": 67632,
      "name": "floatBufferViews",
      "target": 34963
    },
    {
      "buffer": 0,
      "byteLength": 85824,
      "byteOffset": 67632,
      "byteStride": 8,
      "name": "floatBufferViews",
      "target": 34962
    },
    {
      "buffer": 0,
      "byteLength": 257472,
      "byteOffset": 153456,
      "byteStride": 12,
      "name": "floatBufferViews",
      "target": 34962
    },
    {
      "buffer": 0,
      "byteLength": 224,
      "byteOffset": 410928,
      "name": "floatBufferViews"
    },
    {
      "buffer": 0,
      "byteLength": 336,
      "byteOffset": 411152,
      "byteStride": 12,
      "name": "floatBufferViews"
    },
    {
      "buffer": 0,
      "byteLength": 448,
      "byteOffset": 411488,
      "byteStride": 16,
      "name": "floatBufferViews"
    }
  ],
  "buffers": [
    {
      "byteLength": 411936,
      "uri": "scene.bin"
    }
  ],
  "images": [
    {
      "uri": "textures/material_baseColor.png"
    }
  ],
  "materials": [
    {
      "doubleSided": true,
      "name": "material",
      "pbrMetallicRoughness": {
        "baseColorTexture": {
          "index": 0
        },
        "metallicFactor": 0.0,
        "roughnessFactor": 0.5
      }
    },
    {
      "doubleSided": true,
      "name": "CannonShaft",
      "pbrMetallicRoughness": {
        "baseColorFactor": [
          0.0457608,
          0.0457608,
          0.0457608,
          1.0
        ],
        "metallicFactor": 0.754545,
        "roughnessFactor": 0.666376
      }
    },
    {
      "doubleSided": true,
      "name": "Fuse",
      "pbrMetallicRoughness": {
        "baseColorFactor": [
          0.102781,
          0.0953793,
          0.0953793,
          1.0
        ],
        "metallicFactor": 0.0,
        "roughnessFactor": 0.743151
      }
    }
  ],
  "meshes": [
    {
      "name": "Object_0",
      "primitives": [
        {
          "attributes": {
            "NORMAL": 1,
            "POSITION": 0,
            "TEXCOORD_0": 2
          },
          "indices": 3,
          "material": 0,
          "mode": 4
        }
      ]
    },
    {
      "name": "Object_1",
      "primitives": [
        {
          "attributes": {
            "NORMAL": 5,
            "POSITION": 4,
            "TEXCOORD_0": 6
          },
          "indices": 7,
          "material": 1,
          "mode": 4
        }
      ]
    },
    {
      "name": "Object_2",
      "primitives": [
        {
          "attributes": {
            "NORMAL": 9,
            "POSITION": 8,
            "TEXCOORD_0": 10
          },
          "indices": 11,
          "material": 2,
          "mode": 4
        }
      ]
    }
  ],
  "nodes": [
    {
      "children": [
        1
      ],
      "matrix": [
        1.0,
        0.0,
        0.0,
        0.0,
        0.0,
        2.220446049250313e-16,
        -1.0,
        0.0,
        0.0,
        1.0,
        2.220446049250313e-16,
        0.0,
        0.0,
        0.0,
        0.0,
        1.0
      ],
      "name": "Sketchfab_model"
    },
    {
      "children": [
        2
      ],
      "name": "root"
    },
    {
      "children": [
        3
      ],
      "matrix": [
        1.0,
        0.0,
        0.0,
        0.0,
        0.0,
        2.220446049250313e-16,
        1.0,
        0.0,
        0.0,
        -1.0,
        2.220446049250313e-16,
        0.0,
        0.0,
        0.0,
        0.0,
        1.0
      ],
      "name": "GLTF_SceneRootNode"
    },
    {
      "children": [
        4,
        5
      ],
      "name": "Base_1",
      "rotation": [
        -0.7071068286895752,
        0.0,
        0.0,
        0.7071068286895752
      ],
      "translation": [
        -0.07750093936920166,
        0.6779729723930359,
        0.634655237197876
      ]
    },
    {
      "mesh": 0,
      "name": "Object_4"
    },
    {
      "children": [
        6,
        7
      ],
      "matrix": [
        0.01718156664285575,
        1.5028628291835489e-07,
        -0.999852385988889,
        0.0,
        0.999852385988889,
        1.4772593559531089e-07,
        0.0171815666428779,
        0.0,
        1.5028628291835489e-07,
        -0.9999999999999778,
        -1.4772593548428858e-07,
        0.0,
        0.6939048767089844,
        0.7331873178482056,
        0.6360763907432556,
        1.0
      ],
      "name": "Shaft_0"
    },
    {
      "mesh": 1,
      "name": "Object_6"
    },
    {
      "mesh": 2,
      "name": "Object_7"
    }
  ],
  "samplers": [
    {
      "magFilter": 9729,
      "minFilter": 9987,
      "wrapS": 10497,
      "wrapT": 10497
    }
  ],
  "scene": 0,
  "scenes": [
    {
      "name": "Sketchfab_Scene",
      "nodes": [
        0
      ]
    }
  ],
  "textures": [
    {
      "sampler": 0,
      "source": 0
    }
  ]
}
